<svg width="38" height="38" viewBox="0 0 38 38" fill="none" xmlns="http://www.w3.org/2000/svg">
<path d="M15.7449 6.99157L15.4289 11.8861L15.3978 12.5353L15.2577 12.5508C8.34871 13.3604 3.11328 19.2512 3.11328 26.4654C3.11328 27.1773 3.16621 27.8815 3.27207 28.5779C3.70641 31.4502 4.03333 31.7288 6.03067 29.3532C6.52592 28.7756 7.0674 28.2394 7.64972 27.7497C9.74046 26.0218 12.3404 25.0275 15.0506 24.9195L15.4024 24.9117L15.4974 26.825L15.7558 30.4756C15.8804 31.7273 17.1974 32.582 18.4086 31.8985C18.9566 31.5903 19.4905 31.2603 20.0276 30.9333C22.8096 29.1929 25.4141 27.1924 27.9516 25.1141C29.4461 23.8687 30.7538 22.6886 31.8684 21.6144C32.3822 21.1116 32.8959 20.6087 33.3925 20.0888C34.1118 19.3353 34.1834 18.0883 33.4299 17.299C31.6956 15.4854 29.2453 13.214 26.1956 10.8041C23.7234 8.87061 21.1672 7.06474 18.4584 5.47838C17.1554 4.73579 15.8633 5.75393 15.7449 6.99157Z" fill="white"/>
</svg>
