<svg width="34" height="34" viewBox="0 0 34 34" fill="none" xmlns="http://www.w3.org/2000/svg">
<path d="M15.0679 18.2781C15.0679 17.4791 14.4091 16.8203 13.6101 16.8203C12.8111 16.8203 12.1523 17.4791 12.1523 18.2781C12.1523 18.6647 12.3059 19.0355 12.5793 19.3089C12.8527 19.5823 13.2235 19.7359 13.6101 19.7359C13.9967 19.7359 14.3675 19.5823 14.6409 19.3089C14.9143 19.0355 15.0679 18.6647 15.0679 18.2781ZM19.7496 21.6001C19.1188 22.2309 17.7732 22.4552 16.82 22.4552C15.8668 22.4552 14.5212 22.2309 13.8905 21.6001C13.8564 21.5636 13.8151 21.5345 13.7693 21.5146C13.7235 21.4947 13.6741 21.4845 13.6241 21.4845C13.5742 21.4845 13.5248 21.4947 13.4789 21.5146C13.4331 21.5345 13.3919 21.5636 13.3578 21.6001C13.3213 21.6342 13.2922 21.6755 13.2723 21.7213C13.2524 21.7671 13.2421 21.8165 13.2421 21.8665C13.2421 21.9164 13.2524 21.9658 13.2723 22.0116C13.2922 22.0574 13.3213 22.0987 13.3578 22.1328C14.353 23.128 16.2593 23.2121 16.82 23.2121C17.3807 23.2121 19.287 23.128 20.2822 22.1328C20.3187 22.0987 20.3478 22.0574 20.3677 22.0116C20.3876 21.9658 20.3979 21.9164 20.3979 21.8665C20.3979 21.8165 20.3876 21.7671 20.3677 21.7213C20.3478 21.6755 20.3187 21.6342 20.2822 21.6001C20.142 21.46 19.9037 21.46 19.7496 21.6001ZM20.0299 16.8203C19.2309 16.8203 18.5721 17.4791 18.5721 18.2781C18.5721 19.0771 19.2309 19.7359 20.0299 19.7359C20.8289 19.7359 21.4877 19.0771 21.4877 18.2781C21.4877 17.4791 20.8429 16.8203 20.0299 16.8203Z" fill="white"/>
<path d="M16.8217 2.80469C9.0843 2.80469 2.80469 9.08434 2.80469 16.8218C2.80469 24.5592 9.0843 30.8388 16.8217 30.8388C24.5591 30.8388 30.8387 24.5592 30.8387 16.8218C30.8387 9.08434 24.5591 2.80469 16.8217 2.80469ZM24.9515 18.686C24.9796 18.8823 24.9936 19.0925 24.9936 19.3028C24.9936 22.4426 21.3351 24.9937 16.8217 24.9937C12.3082 24.9937 8.64977 22.4426 8.64977 19.3028C8.64977 19.0925 8.66379 18.8823 8.69182 18.686C7.97696 18.3636 7.48636 17.6488 7.48636 16.8218C7.48428 16.4198 7.60102 16.0262 7.82192 15.6904C8.04281 15.3546 8.35801 15.0915 8.72793 14.9343C9.09784 14.777 9.50597 14.7326 9.90106 14.8066C10.2961 14.8805 10.6606 15.0696 10.9486 15.35C12.3643 14.3267 14.3267 13.6819 16.4993 13.6118L17.5365 8.71989C17.5506 8.62177 17.6066 8.53767 17.6907 8.49562C17.7748 8.43955 17.873 8.42553 17.9711 8.43955L21.3632 9.16844C21.4782 8.93516 21.6536 8.73692 21.8711 8.59427C22.0886 8.45161 22.3403 8.36975 22.6001 8.35716C22.8598 8.34457 23.1183 8.40172 23.3485 8.52268C23.5788 8.64364 23.7725 8.82401 23.9096 9.04507C24.0466 9.26613 24.122 9.51983 24.128 9.77986C24.1339 10.0399 24.0702 10.2968 23.9434 10.5239C23.8166 10.751 23.6314 10.94 23.4069 11.0714C23.1824 11.2028 22.9269 11.2717 22.6668 11.271C21.8818 11.271 21.251 10.6542 21.209 9.88331L18.1673 9.23852L17.2422 13.6118C19.3868 13.6819 21.3071 14.3407 22.7088 15.35C22.9237 15.1448 23.1808 14.989 23.4622 14.8936C23.7435 14.7981 24.0424 14.7653 24.3377 14.7974C24.6331 14.8295 24.9179 14.9258 25.1722 15.0795C25.4265 15.2332 25.6441 15.4405 25.8099 15.6871C25.9756 15.9337 26.0855 16.2135 26.1318 16.507C26.1782 16.8005 26.1598 17.1005 26.078 17.3862C25.9963 17.6718 25.8531 17.9361 25.6585 18.1607C25.4639 18.3852 25.2226 18.5645 24.9515 18.686Z" fill="white"/>
</svg>
