<svg width="34" height="34" viewBox="0 0 34 34" fill="none" xmlns="http://www.w3.org/2000/svg">
<path fill-rule="evenodd" clip-rule="evenodd" d="M6.30666 2.10156C5.1914 2.10156 4.12182 2.5446 3.33321 3.33321C2.5446 4.12183 2.10156 5.19142 2.10156 6.30668V27.3323C2.10156 28.4476 2.5446 29.5171 3.33321 30.3058C4.12182 31.0944 5.1914 31.5374 6.30666 31.5374H27.3321C28.4474 31.5374 29.517 31.0944 30.3056 30.3058C31.0942 29.5171 31.5372 28.4476 31.5372 27.3323V6.30668C31.5372 5.19142 31.0942 4.12183 30.3056 3.33321C29.517 2.5446 28.4474 2.10156 27.3321 2.10156H6.30666ZM8.62367 11.1363C9.29004 11.1363 9.92911 10.8715 10.4003 10.4004C10.8715 9.92916 11.1362 9.29008 11.1362 8.62371C11.1362 7.95733 10.8715 7.31825 10.4003 6.84706C9.92911 6.37586 9.29004 6.11115 8.62367 6.11115C7.9573 6.11115 7.31822 6.37586 6.84703 6.84706C6.37584 7.31825 6.11112 7.95733 6.11112 8.62371C6.11112 9.29008 6.37584 9.92916 6.84703 10.4004C7.31822 10.8715 7.9573 11.1363 8.62367 11.1363ZM10.7262 26.9391V13.1064H6.52112V26.9391H10.7262ZM13.5184 13.1064H17.7235V14.9587C18.3438 13.9873 19.7062 12.6795 22.2398 12.6795C25.2632 12.6795 26.9053 14.6833 26.9053 18.4952C26.9053 18.6782 26.9221 19.5129 26.9221 19.5129V26.937H22.7171V19.515C22.7171 18.4952 22.5026 16.4915 20.236 16.4915C17.9674 16.4915 17.7761 19.0104 17.7235 20.6588V26.937H13.5184V13.1064Z" fill="white"/>
</svg>
