<svg width="34" height="34" viewBox="0 0 34 34" fill="none" xmlns="http://www.w3.org/2000/svg">
<path d="M18.2595 2.80469C19.8364 2.80889 20.6368 2.8173 21.3278 2.83693L21.5998 2.84674C21.9137 2.85795 22.2235 2.87197 22.5978 2.88879C24.0892 2.95888 25.1068 3.19436 25.9997 3.54058C26.9248 3.89662 27.7042 4.3788 28.4835 5.15675C29.1965 5.85723 29.7481 6.7049 30.0997 7.64058C30.4459 8.53346 30.6814 9.5511 30.7515 11.0439C30.7683 11.4168 30.7823 11.7266 30.7935 12.0419L30.8019 12.3139C30.8229 13.0035 30.8314 13.8039 30.8342 15.3808L30.8356 16.4265V18.2627C30.839 19.2851 30.8282 20.3075 30.8033 21.3296L30.7949 21.6016C30.7837 21.917 30.7697 22.2267 30.7529 22.5996C30.6828 24.0924 30.4445 25.1086 30.0997 26.0029C29.7481 26.9386 29.1965 27.7863 28.4835 28.4868C27.783 29.1998 26.9354 29.7514 25.9997 30.1029C25.1068 30.4492 24.0892 30.6846 22.5978 30.7547L21.5998 30.7968L21.3278 30.8052C20.6368 30.8248 19.8364 30.8346 18.2595 30.8374L17.2138 30.8388H15.379C14.3561 30.8424 13.3333 30.8317 12.3107 30.8066L12.0388 30.7982C11.706 30.7856 11.3734 30.7711 11.0408 30.7547C9.54936 30.6846 8.53172 30.4492 7.63744 30.1029C6.70227 29.7512 5.8551 29.1996 5.15503 28.4868C4.44149 27.7864 3.88945 26.9387 3.53747 26.0029C3.19125 25.11 2.95577 24.0924 2.88568 22.5996L2.84363 21.6016L2.83662 21.3296C2.81078 20.3075 2.7991 19.2851 2.80158 18.2627V15.3808C2.7977 14.3584 2.80798 13.336 2.83242 12.3139L2.84223 12.0419C2.85344 11.7266 2.86746 11.4168 2.88428 11.0439C2.95436 9.5511 3.18985 8.53487 3.53607 7.64058C3.88887 6.70451 4.44188 5.85681 5.15643 5.15675C5.8561 4.44405 6.70277 3.89252 7.63744 3.54058C8.53172 3.19436 9.54796 2.95888 11.0408 2.88879C11.4136 2.87197 11.7248 2.85795 12.0388 2.84674L12.3107 2.83833C13.3328 2.81342 14.3552 2.80268 15.3776 2.80609L18.2595 2.80469ZM16.8186 9.81322C14.9598 9.81322 13.1772 10.5516 11.8628 11.866C10.5485 13.1803 9.81007 14.963 9.81007 16.8218C9.81007 18.6805 10.5485 20.4632 11.8628 21.7775C13.1772 23.0919 14.9598 23.8303 16.8186 23.8303C18.6773 23.8303 20.46 23.0919 21.7743 21.7775C23.0887 20.4632 23.8271 18.6805 23.8271 16.8218C23.8271 14.963 23.0887 13.1803 21.7743 11.866C20.46 10.5516 18.6773 9.81322 16.8186 9.81322ZM16.8186 12.6166C17.3708 12.6165 17.9176 12.7252 18.4278 12.9365C18.9381 13.1477 19.4017 13.4574 19.7922 13.8478C20.1828 14.2382 20.4926 14.7017 20.704 15.2119C20.9154 15.722 21.0243 16.2688 21.0244 16.8211C21.0245 17.3733 20.9158 17.9201 20.7045 18.4303C20.4933 18.9406 20.1836 19.4042 19.7932 19.7947C19.4028 20.1853 18.9393 20.4951 18.4291 20.7065C17.919 20.9179 17.3722 21.0268 16.82 21.0269C15.7047 21.0269 14.6351 20.5838 13.8465 19.7952C13.0579 19.0066 12.6149 17.937 12.6149 16.8218C12.6149 15.7065 13.0579 14.6369 13.8465 13.8483C14.6351 13.0597 15.7047 12.6166 16.82 12.6166M24.1789 7.71066C23.7142 7.71066 23.2685 7.89526 22.94 8.22385C22.6114 8.55244 22.4268 8.9981 22.4268 9.4628C22.4268 9.92749 22.6114 10.3732 22.94 10.7017C23.2685 11.0303 23.7142 11.2149 24.1789 11.2149C24.6436 11.2149 25.0892 11.0303 25.4178 10.7017C25.7464 10.3732 25.931 9.92749 25.931 9.4628C25.931 8.9981 25.7464 8.55244 25.4178 8.22385C25.0892 7.89526 24.6436 7.71066 24.1789 7.71066Z" fill="white"/>
</svg>
