<svg width="52" height="49" viewBox="0 0 52 49" fill="none" xmlns="http://www.w3.org/2000/svg">
<path d="M51.5502 11.8049C51.5397 10.6582 51.2216 9.53544 50.6293 8.55363C50.0369 7.57182 49.1919 6.76697 48.1824 6.22307C47.1729 5.67917 46.036 5.41615 44.8902 5.46145C43.7444 5.50675 42.6318 5.85872 41.6684 6.48062C40.705 7.10252 39.9262 7.97157 39.4132 8.99708C38.9002 10.0226 38.6718 11.167 38.7519 12.3109C38.8319 13.4548 39.2175 14.5562 39.8683 15.5003C40.5192 16.4443 41.4115 17.1964 42.4521 17.6781C41.4483 20.6253 39.1844 25.7724 35.5324 25.7724C30.6203 25.7724 29.1253 19.0663 27.9933 12.5951C29.4291 12.1045 30.6442 11.1203 31.4222 9.81779C32.2003 8.51523 32.4909 6.97883 32.2422 5.4821C31.9936 3.98538 31.2218 2.62545 30.0644 1.64444C28.907 0.663433 27.439 0.125 25.9217 0.125C24.4045 0.125 22.9365 0.663433 21.779 1.64444C20.6216 2.62545 19.8499 3.98538 19.6012 5.4821C19.3526 6.97883 19.6431 8.51523 20.4212 9.81779C21.1993 11.1203 22.4143 12.1045 23.8501 12.5951C22.6541 19.1944 21.2018 25.7724 16.311 25.7724C12.659 25.7724 10.3951 20.6253 9.39135 17.6781C10.7505 17.0478 11.8459 15.9613 12.487 14.6072C13.1281 13.2531 13.2745 11.7171 12.9006 10.2664C12.5267 8.81558 11.6562 7.5417 10.4404 6.66617C9.22471 5.79064 7.74059 5.36884 6.2461 5.47408C4.75161 5.57933 3.34126 6.20497 2.26022 7.24224C1.17919 8.27951 0.495829 9.66282 0.328947 11.1517C0.162064 12.6406 0.522211 14.1408 1.34678 15.3917C2.17134 16.6426 3.40819 17.5649 4.84229 17.9984L8.32349 38.9283C8.40536 39.4337 8.66604 39.8928 9.05804 40.2221C9.45005 40.5514 9.94729 40.7289 10.4592 40.7223H41.4269C41.9388 40.7289 42.4361 40.5514 42.8281 40.2221C43.2201 39.8928 43.4808 39.4337 43.5626 38.9283L47.0438 17.9984C48.3618 17.5891 49.5124 16.7651 50.3244 15.6492C51.1364 14.5332 51.5663 13.1849 51.5502 11.8049ZM41.4056 43.8405H10.4378C9.87142 43.8405 9.32819 44.0655 8.92767 44.466C8.52715 44.8665 8.30213 45.4097 8.30213 45.9762C8.30213 46.5426 8.52715 47.0858 8.92767 47.4863C9.32819 47.8869 9.87142 48.1119 10.4378 48.1119H41.4056C41.972 48.1119 42.5152 47.8869 42.9158 47.4863C43.3163 47.0858 43.5413 46.5426 43.5413 45.9762C43.5413 45.4097 43.3163 44.8665 42.9158 44.466C42.5152 44.0655 41.972 43.8405 41.4056 43.8405Z" fill="white"/>
</svg>
