<svg width="50" height="45" viewBox="0 0 50 45" fill="none" xmlns="http://www.w3.org/2000/svg">
<path d="M16.9064 14.3702H32.9362L26.1048 0.734375H23.7405L16.9064 14.3702ZM23.727 44.3458V16.7534H0.739169L23.727 44.3458ZM26.1129 44.3458L49.1089 16.7534H26.1129V44.3458ZM35.5701 14.3675H49.7801L44.1862 3.12833C43.7836 2.40223 43.2435 1.82172 42.5659 1.38678C41.8884 0.951844 41.1272 0.734375 40.2825 0.734375H28.7684L35.5701 14.3675ZM0.0625 14.3675H14.2725L21.0743 0.734375H9.56013C8.71541 0.734375 7.95517 0.951844 7.2794 1.38678C6.60363 1.82172 6.06266 2.40313 5.65647 3.13102L0.0625 14.3675Z" fill="white"/>
</svg>
