<svg width="58" height="58" viewBox="0 0 58 58" fill="none" xmlns="http://www.w3.org/2000/svg">
<path d="M9.7639 8.99489C9.33297 9.85197 9.12108 10.9138 8.6973 13.0327L7.27359 20.1513C7.07182 21.1218 7.07026 22.1234 7.269 23.0946C7.46775 24.0658 7.86261 24.9863 8.42944 25.7996C8.99626 26.6129 9.72311 27.3019 10.5655 27.8246C11.4079 28.3472 12.348 28.6924 13.3285 28.8391C14.3089 28.9858 15.3089 28.9308 16.2674 28.6775C17.2258 28.4243 18.1225 27.9781 18.9025 27.3663C19.6825 26.7545 20.3295 25.9899 20.8037 25.1193C21.278 24.2488 21.5696 23.2906 21.6607 22.3035L21.8273 20.6607C21.7371 21.7055 21.8658 22.7576 22.2052 23.7499C22.5447 24.7421 23.0873 25.6526 23.7985 26.4232C24.5098 27.1938 25.3739 27.8076 26.3358 28.2254C27.2977 28.6431 28.3361 28.8556 29.3848 28.8493C30.4334 28.843 31.4692 28.618 32.426 28.1887C33.3828 27.7594 34.2395 27.1352 34.9414 26.3561C35.6432 25.5769 36.1749 24.66 36.5023 23.6637C36.8298 22.6675 36.9458 21.6139 36.843 20.5703L37.0168 22.3035C37.1079 23.2906 37.3995 24.2488 37.8737 25.1193C38.348 25.9899 38.9949 26.7545 39.7749 27.3663C40.5549 27.9781 41.4516 28.4243 42.4101 28.6775C43.3685 28.9308 44.3686 28.9858 45.349 28.8391C46.3294 28.6924 47.2696 28.3472 48.112 27.8246C48.9544 27.3019 49.6812 26.6129 50.248 25.7996C50.8148 24.9863 51.2097 24.0658 51.4085 23.0946C51.6072 22.1234 51.6056 21.1218 51.4039 20.1513L49.9802 13.0327C49.5564 10.9138 49.3445 9.85435 48.9136 8.99489C48.4646 8.09981 47.8323 7.30914 47.058 6.67422C46.2836 6.0393 45.3844 5.57431 44.4186 5.30943C43.4901 5.05469 42.4093 5.05469 40.2475 5.05469H18.43C16.2682 5.05469 15.1873 5.05469 14.2588 5.30943C13.2931 5.57431 12.3939 6.0393 11.6195 6.67422C10.8451 7.30914 10.2129 8.09981 9.7639 8.99489ZM44.2639 32.4337C46.1241 32.4384 47.9538 31.9619 49.5754 31.0505V33.6241C49.5754 42.6021 49.5754 47.0922 46.7851 49.8801C44.5401 52.1276 41.195 52.5633 35.2907 52.649V44.3377C35.2907 42.1116 35.2907 40.9998 34.8122 40.1713C34.4987 39.6285 34.0479 39.1777 33.5051 38.8642C32.6766 38.3857 31.5648 38.3857 29.3387 38.3857C27.1127 38.3857 26.0009 38.3857 25.1723 38.8642C24.6295 39.1777 24.1787 39.6285 23.8653 40.1713C23.3868 40.9998 23.3868 42.1116 23.3868 44.3377V52.649C17.4824 52.5633 14.1374 52.1252 11.8923 49.8801C9.10204 47.0922 9.10204 42.6021 9.10204 33.6241V31.0505C10.7243 31.9623 12.555 32.4388 14.416 32.4337C17.1673 32.4355 19.8162 31.3902 21.825 29.5101C23.8718 31.3965 26.5553 32.4406 29.3387 32.4337C32.1222 32.4406 34.8057 31.3965 36.8525 29.5101C38.8613 31.3902 41.5125 32.4355 44.2639 32.4337Z" fill="white"/>
</svg>
