<svg width="62" height="50" viewBox="0 0 62 50" fill="none" xmlns="http://www.w3.org/2000/svg">
<path d="M31.31 50C30.4317 50 29.6959 49.7333 29.1028 49.2C28.5097 48.6667 28.2121 48.0074 28.21 47.2222C28.21 46.8981 28.2875 46.562 28.4425 46.2139C28.5975 45.8657 28.83 45.5537 29.14 45.2778L43.4775 32.4306L41.23 30.4167L26.97 43.2639C26.66 43.5417 26.3242 43.75 25.9625 43.8889C25.6008 44.0278 25.2133 44.0972 24.8 44.0972C23.9217 44.0972 23.1859 43.8315 22.5928 43.3C21.9997 42.7685 21.7021 42.1083 21.7 41.3194C21.7 40.8565 21.7775 40.4741 21.9325 40.1722C22.0875 39.8704 22.2942 39.6046 22.5525 39.375L36.89 26.5278L34.72 24.5833L20.3825 37.3611C20.0725 37.6389 19.7367 37.8472 19.375 37.9861C19.0133 38.125 18.6 38.1944 18.135 38.1944C17.3083 38.1944 16.585 37.9167 15.965 37.3611C15.345 36.8056 15.035 36.1574 15.035 35.4167C15.035 35.0463 15.1125 34.6991 15.2675 34.375C15.4225 34.0509 15.655 33.75 15.965 33.4722L30.3025 20.625L28.055 18.6806L13.795 31.5278C13.5367 31.7593 13.2267 31.9444 12.865 32.0833C12.5033 32.2222 12.0642 32.2917 11.5475 32.2917C10.6692 32.2917 9.9324 32.025 9.3372 31.4917C8.742 30.9583 8.44543 30.2991 8.4475 29.5139C8.4475 29.1435 8.525 28.7963 8.68 28.4722C8.835 28.1482 9.0675 27.8472 9.3775 27.5694L26.66 12.0833L38.285 22.5695C38.8533 23.0787 39.525 23.4843 40.3 23.7861C41.075 24.088 41.85 24.238 42.625 24.2361C44.2783 24.2361 45.725 23.7157 46.965 22.675C48.205 21.6343 48.825 20.3028 48.825 18.6806C48.825 18.0324 48.6958 17.3611 48.4375 16.6667C48.1792 15.9722 47.7142 15.3241 47.0425 14.7222L33.17 2.29168C34.0483 1.55094 35.03 0.984271 36.115 0.591678C37.2 0.199086 38.285 0.00186347 39.37 1.16225e-05C40.7133 1.16225e-05 41.9533 0.197234 43.09 0.591678C44.2267 0.986123 45.26 1.59909 46.19 2.43057L59.2875 14.2361C60.2175 15.0695 60.9026 15.9954 61.3428 17.0139C61.783 18.0324 62.0021 19.213 62 20.5556C62 21.4815 61.7675 22.4195 61.3025 23.3695C60.8375 24.3195 60.1658 25.187 59.2875 25.9722L33.48 49.1667C33.0667 49.537 32.705 49.7685 32.395 49.8611C32.085 49.9537 31.7233 50 31.31 50ZM4.7275 27.7778L2.7125 25.9722C1.83417 25.2315 1.1625 24.3519 0.6975 23.3333C0.2325 22.3148 0 21.25 0 20.1389C0 18.9352 0.258333 17.8241 0.775 16.8056C1.29167 15.787 1.9375 14.9306 2.7125 14.2361L15.81 2.43057C16.6367 1.68983 17.6183 1.09909 18.755 0.658345C19.8917 0.217604 21.0025 -0.00184023 22.0875 1.16225e-05C23.4825 1.16225e-05 24.7225 0.174086 25.8075 0.522234C26.8925 0.870382 27.9517 1.50649 28.985 2.43057L44.8725 16.6667C45.1825 16.9445 45.415 17.2454 45.57 17.5695C45.725 17.8935 45.8025 18.2407 45.8025 18.6111C45.8025 19.3519 45.4925 20 44.8725 20.5556C44.2525 21.1111 43.5292 21.3889 42.7025 21.3889C42.2375 21.3889 41.85 21.3315 41.54 21.2167C41.23 21.1019 40.8942 20.8815 40.5325 20.5556L26.5825 8.19445L4.7275 27.7778Z" fill="white"/>
</svg>
