<svg width="39" height="39" viewBox="0 0 39 39" fill="none" xmlns="http://www.w3.org/2000/svg">
<path d="M28.7663 5.08738L10.2527 18.5165C9.58242 19.004 9.58242 20.0018 10.2527 20.4855L28.7663 33.9184C28.8118 33.9515 28.8656 33.9713 28.9217 33.9756C28.9778 33.98 29.034 33.9687 29.0841 33.9431C29.1342 33.9175 29.1762 33.8785 29.2055 33.8304C29.2348 33.7824 29.2502 33.7271 29.25 33.6709V30.8144C29.25 30.6202 29.1548 30.4374 28.9986 30.3231L14.0842 19.5029L28.9986 8.68269C29.1548 8.56844 29.25 8.38562 29.25 8.19138V5.33494C29.25 5.08738 28.9682 4.94265 28.7663 5.08738Z" fill="white"/>
</svg>
