<svg width="39" height="39" viewBox="0 0 39 39" fill="none" xmlns="http://www.w3.org/2000/svg">
<path d="M10.2337 33.9126L28.7473 20.4835C29.4176 19.996 29.4176 18.9982 28.7473 18.5145L10.2337 5.08157C10.1882 5.04851 10.1344 5.02871 10.0783 5.02435C10.0222 5.02 9.96596 5.03126 9.91587 5.0569C9.86578 5.08253 9.82377 5.12154 9.79449 5.16959C9.76521 5.21764 9.74981 5.27286 9.75 5.32912V8.18557C9.75 8.37981 9.84521 8.56262 10.0014 8.67688L24.9158 19.4971L10.0014 30.3173C9.84521 30.4316 9.75 30.6144 9.75 30.8086V33.6651C9.75 33.9126 10.0318 34.0573 10.2337 33.9126Z" fill="white"/>
</svg>
